<?xml version="1.0" encoding="UTF-8"?>
<svg xmlns="http://www.w3.org/2000/svg" style="display: none;">
  <!-- Default icon sprite for @mono/components -->
  <!-- Add your icons here as symbol elements -->

  <!-- Placeholder icon -->
  <symbol id="icon-placeholder" viewBox="0 0 24 24">
    <rect x="2" y="2" width="20" height="20" rx="2" ry="2" fill="currentColor" opacity="0.2"/>
    <circle cx="12" cy="12" r="3" fill="currentColor"/>
  </symbol>

  <!-- Common icons -->
  <symbol id="icon-home" viewBox="0 0 24 24">
    <path d="M3 9l9-7 9 7v11a2 2 0 0 1-2 2H5a2 2 0 0 1-2-2V9z" fill="currentColor"/>
    <polyline points="9,22 9,12 15,12 15,22" fill="none" stroke="currentColor" stroke-width="2"/>
  </symbol>

  <symbol id="icon-user" viewBox="0 0 24 24">
    <path d="M20 21v-2a4 4 0 0 0-4-4H8a4 4 0 0 0-4 4v2" fill="none" stroke="currentColor" stroke-width="2"/>
    <circle cx="12" cy="7" r="4" fill="none" stroke="currentColor" stroke-width="2"/>
  </symbol>
</svg>
